#usda 1.0
(
    defaultPrim = "Region"
    metersPerUnit = 1
    upAxis = "Z"
)

def Xform "Region"
{
    def Mesh "Outline"
    {
        int[] faceVertexCounts = [3, 3, 3, 3, 3, 3, 3, 3, 3, 3, 3, 3, 3, 3, 3, 3, 3, 3, 3, 3, 3, 3, 3, 3, 3, 3, 3, 3, 3, 3, 3, 3, 3, 3, 3, 3, 3, 3, 3, 3, 3, 3, 3, 3, 3, 3, 3, 3]
        int[] faceVertexIndices = [1, 3, 0, 4, 1, 0, 0, 3, 2, 2, 4, 0, 1, 7, 3, 5, 1, 4, 5, 7, 1, 3, 7, 2, 6, 4, 2, 2, 7, 6, 6, 5, 4, 7, 5, 6, 9, 11, 8, 12, 9, 8, 8, 11, 10, 10, 12, 8, 9, 15, 11, 13, 9, 12, 13, 15, 9, 11, 15, 10, 14, 12, 10, 10, 15, 14, 14, 13, 12, 15, 13, 14, 17, 19, 16, 20, 17, 16, 16, 19, 18, 18, 20, 16, 17, 23, 19, 21, 17, 20, 21, 23, 17, 19, 23, 18, 22, 20, 18, 18, 23, 22, 22, 21, 20, 23, 21, 22, 25, 27, 24, 28, 25, 24, 24, 27, 26, 26, 28, 24, 25, 31, 27, 29, 25, 28, 29, 31, 25, 27, 31, 26, 30, 28, 26, 26, 31, 30, 30, 29, 28, 31, 29, 30]
        point3f[] points = [(-0.14, -0.19, 0.0002), (-0.14, -0.19, 0.0004), (-0.14, -0.184, 0.0002), (-0.14, -0.184, 0.0004), (0.14, -0.19, 0.0002), (0.14, -0.19, 0.0004), (0.14, -0.184, 0.0002), (0.14, -0.184, 0.0004), (-0.14, 0.184, 0.0002), (-0.14, 0.184, 0.0004), (-0.14, 0.19, 0.0002), (-0.14, 0.19, 0.0004), (0.14, 0.184, 0.0002), (0.14, 0.184, 0.0004), (0.14, 0.19, 0.0002), (0.14, 0.19, 0.0004), (-0.14, -0.184, 0.0002), (-0.14, -0.184, 0.0004), (-0.14, 0.184, 0.0002), (-0.14, 0.184, 0.0004), (-0.134, -0.184, 0.0002), (-0.134, -0.184, 0.0004), (-0.134, 0.184, 0.0002), (-0.134, 0.184, 0.0004), (0.134, -0.184, 0.0002), (0.134, -0.184, 0.0004), (0.134, 0.184, 0.0002), (0.134, 0.184, 0.0004), (0.14, -0.184, 0.0002), (0.14, -0.184, 0.0004), (0.14, 0.184, 0.0002), (0.14, 0.184, 0.0004)]
        color3f[] primvars:displayColor = [(0.05, 0.3, 0.8)]
        uniform token subdivisionScheme = "none"
    }
}
